<svg
  xmlns:mydata="http://www.w3.org/2000/svg"
  mydata:contrastcolor="ffffff"
  mydata:template="Default"
  mydata:presentation="2.5"
  mydata:layouttype="undefined"
  mydata:specialfontid="undefined"
  mydata:id1="955"
  mydata:id2="014"
  mydata:companyname="ticketly"
  mydata:companytagline="La forma más inteligente de gestionar tus tickets"
  version="1.1"
  xmlns="http://www.w3.org/2000/svg"
  xmlns:xlink="http://www.w3.org/1999/xlink"
  viewBox="20 170 500 130"
>
  <g
    fill="#205c40"
    fill-rule="none"
    stroke="none"
    stroke-width="1"
    stroke-linecap="butt"
    stroke-linejoin="miter"
    stroke-miterlimit="10"
    stroke-dasharray=""
    stroke-dashoffset="0"
    font-family="none"
    font-weight="none"
    font-size="none"
    text-anchor="none"
    style="mix-blend-mode: normal"
  >
    <g
      data-paper-data='{"isGlobalGroup":true,"bounds":{"x":64.99999999999999,"y":184.3869628380868,"width":420,"height":101.22607432382642}}'
    >
      <g data-paper-data='{"isSecondaryText":true}' fill-rule="nonzero">
        <path
          d="M220.97061,278.94195v-4.84791h0.81131v4.0765h2.35413v0.77141z"
          data-paper-data='{"glyphName":"L","glyphIndex":0,"firstGlyphOfWord":true,"word":1}'
        ></path>
        <path
          d="M229.15907,278.94195c-0.0133,-0.03103 -0.03658,-0.08645 -0.06983,-0.16625c-0.03325,-0.0798 -0.07426,-0.17734 -0.12303,-0.2926c-0.04877,-0.11527 -0.10197,-0.24273 -0.1596,-0.38238c-0.05763,-0.13965 -0.11748,-0.28485 -0.17955,-0.43558h-1.66917l-0.53201,1.27682h-0.80466c0.01773,-0.0399 0.05985,-0.13854 0.12635,-0.29593c0.0665,-0.15739 0.14963,-0.35245 0.24938,-0.58521c0.09975,-0.23275 0.21059,-0.49211 0.3325,-0.77806c0.12192,-0.28595 0.24716,-0.57745 0.37573,-0.87449c0.12857,-0.29704 0.25381,-0.58853 0.37573,-0.87449c0.12192,-0.28595 0.23275,-0.54531 0.3325,-0.77806c0.09975,-0.23275 0.18288,-0.42782 0.24938,-0.58521c0.0665,-0.15739 0.10862,-0.25603 0.12635,-0.29593c0.01773,0.0399 0.06096,0.13854 0.12968,0.29593c0.06872,0.15739 0.15295,0.35245 0.2527,0.58521c0.09975,0.23275 0.21059,0.49211 0.3325,0.77806c0.12192,0.28595 0.24716,0.57745 0.37573,0.87449c0.12857,0.29704 0.25381,0.58853 0.37573,0.87449c0.12192,0.28595 0.23275,0.54531 0.3325,0.77806c0.09975,0.23275 0.18288,0.42782 0.24938,0.58521c0.0665,0.15739 0.10862,0.25603 0.12635,0.29593zM227.2372,276.98018h1.10391l-0.47881,-1.15711c-0.00443,-0.00443 -0.01552,-0.03436 -0.03325,-0.08978c-0.01773,-0.05542 -0.03103,-0.10529 -0.0399,-0.14963c-0.00887,0.04433 -0.02217,0.09421 -0.0399,0.14963c-0.01773,0.05542 -0.0266,0.08534 -0.0266,0.08978z"
          data-paper-data='{"glyphName":"A","glyphIndex":1,"lastGlyphOfWord":true,"word":1}'
        ></path>
        <path
          d="M234.61657,278.94195v-4.84791h2.94599v0.75146h-2.13468v1.35662h1.85537v0.75811h-1.85537v1.98172z"
          data-paper-data='{"glyphName":"F","glyphIndex":2,"firstGlyphOfWord":true,"word":2}'
        ></path>
        <path
          d="M239.4002,276.52797c0,-0.33694 0.06539,-0.65614 0.19618,-0.95761c0.13078,-0.30147 0.30812,-0.56526 0.53201,-0.79136c0.22389,-0.2261 0.48546,-0.40565 0.78471,-0.53866c0.29925,-0.133 0.61957,-0.1995 0.96094,-0.1995c0.33694,0 0.65614,0.0665 0.95761,0.1995c0.30147,0.133 0.56526,0.31255 0.79136,0.53866c0.2261,0.2261 0.40455,0.48989 0.53533,0.79136c0.13078,0.30147 0.19618,0.62067 0.19618,0.95761c0,0.34137 -0.06539,0.66168 -0.19618,0.96094c-0.13078,0.29925 -0.30923,0.56082 -0.53533,0.78471c-0.2261,0.22389 -0.48989,0.40011 -0.79136,0.52868c-0.30147,0.12857 -0.62067,0.19285 -0.95761,0.19285c-0.34137,0 -0.66168,-0.06428 -0.96094,-0.19285c-0.29925,-0.12857 -0.56082,-0.3048 -0.78471,-0.52868c-0.22389,-0.22389 -0.40122,-0.48546 -0.53201,-0.78471c-0.13078,-0.29925 -0.19618,-0.61957 -0.19618,-0.96094zM240.21816,276.52797c0,0.23497 0.04323,0.45553 0.12968,0.66168c0.08645,0.20615 0.20615,0.3857 0.3591,0.53866c0.15295,0.15295 0.33029,0.27376 0.53201,0.36243c0.20172,0.08867 0.42006,0.133 0.65503,0.133c0.2261,0 0.44001,-0.04433 0.64173,-0.133c0.20172,-0.08867 0.37684,-0.20948 0.52536,-0.36243c0.14852,-0.15295 0.266,-0.3325 0.35245,-0.53866c0.08645,-0.20615 0.12968,-0.42671 0.12968,-0.66168c0,-0.23497 -0.04433,-0.45553 -0.133,-0.66168c-0.08867,-0.20615 -0.20837,-0.38681 -0.3591,-0.54198c-0.15074,-0.15517 -0.32696,-0.27709 -0.52868,-0.36575c-0.20172,-0.08867 -0.41785,-0.133 -0.64838,-0.133c-0.23054,0 -0.44666,0.04433 -0.64838,0.133c-0.20172,0.08867 -0.37684,0.21059 -0.52536,0.36575c-0.14852,0.15517 -0.266,0.33583 -0.35245,0.54198c-0.08645,0.20615 -0.12968,0.42671 -0.12968,0.66168z"
          data-paper-data='{"glyphName":"O","glyphIndex":3,"word":2}'
        ></path>
        <path
          d="M246.53795,278.94195v-4.84791h1.36992c0.266,0 0.50873,0.03547 0.72818,0.1064c0.21945,0.07093 0.40565,0.1729 0.55861,0.3059c0.15295,0.133 0.27154,0.29704 0.35578,0.49211c0.08423,0.19507 0.12635,0.41452 0.12635,0.65836c0,0.133 -0.0133,0.266 -0.0399,0.399c-0.0266,0.133 -0.06872,0.26157 -0.12635,0.3857c-0.05763,0.12413 -0.133,0.23829 -0.2261,0.34248c-0.0931,0.10418 -0.20394,0.19396 -0.3325,0.26933c0.09753,0.15517 0.19285,0.30701 0.28595,0.45553c0.0931,0.14852 0.18731,0.29815 0.28263,0.44888c0.09532,0.15074 0.19396,0.3059 0.29593,0.46551c0.10197,0.1596 0.2128,0.3325 0.3325,0.51871h-0.97756c-0.1995,-0.31034 -0.38792,-0.60405 -0.56526,-0.88114c-0.17734,-0.27709 -0.34802,-0.53976 -0.51206,-0.78803h-0.0665h-0.67831v1.66917zM247.34926,276.50802h0.65171c0.16847,0 0.30812,-0.02882 0.41896,-0.08645c0.11083,-0.05763 0.1995,-0.12746 0.266,-0.20948c0.0665,-0.08202 0.11305,-0.17069 0.13965,-0.266c0.0266,-0.09532 0.0399,-0.18288 0.0399,-0.26268c0,-0.07537 -0.01219,-0.16071 -0.03658,-0.25603c-0.02438,-0.09532 -0.06872,-0.18509 -0.133,-0.26933c-0.06428,-0.08423 -0.15184,-0.15517 -0.26268,-0.2128c-0.11083,-0.05763 -0.2527,-0.08645 -0.42561,-0.08645h-0.65836z"
          data-paper-data='{"glyphName":"R","glyphIndex":4,"word":2}'
        ></path>
        <path
          d="M252.15284,273.88124c0.02217,0.03103 0.07093,0.10086 0.1463,0.20948c0.07537,0.10862 0.16958,0.24162 0.28263,0.399c0.11305,0.15739 0.2394,0.3314 0.37905,0.52203c0.13965,0.19064 0.28152,0.3846 0.42561,0.58188c0.14409,0.19729 0.28485,0.39014 0.42228,0.57856c0.13744,0.18842 0.26157,0.36021 0.3724,0.51538c0.11083,0.15517 0.20504,0.28485 0.28263,0.38903c0.07758,0.10418 0.12524,0.16958 0.14298,0.19618c0.00887,-0.0133 0.04877,-0.06983 0.1197,-0.16958c0.07093,-0.09975 0.16071,-0.22499 0.26933,-0.37573c0.10862,-0.15074 0.23164,-0.32253 0.36908,-0.51538c0.13744,-0.19285 0.2793,-0.38903 0.42561,-0.58853c0.1463,-0.1995 0.28928,-0.39679 0.42893,-0.59186c0.13965,-0.19507 0.26822,-0.3724 0.3857,-0.53201c0.11748,-0.1596 0.21613,-0.29482 0.29593,-0.40565c0.0798,-0.11083 0.13078,-0.18177 0.15295,-0.2128v5.06071h-0.87116v-2.47383c0,-0.03547 0.00443,-0.07315 0.0133,-0.11305c0.00887,-0.0399 0.0133,-0.06428 0.0133,-0.07315l-1.60267,2.30758c-0.02217,-0.0266 -0.07648,-0.09975 -0.16293,-0.21945c-0.08645,-0.1197 -0.18953,-0.26157 -0.30923,-0.42561c-0.1197,-0.16404 -0.24605,-0.34026 -0.37905,-0.52868c-0.133,-0.18842 -0.25824,-0.36354 -0.37573,-0.52536c-0.11748,-0.16182 -0.21724,-0.29925 -0.29925,-0.41231c-0.08202,-0.11305 -0.12746,-0.17844 -0.13633,-0.19618c0,0.00887 0.00443,0.03325 0.0133,0.07315c0.00887,0.0399 0.0133,0.07758 0.0133,0.11305v2.47383h-0.81796z"
          data-paper-data='{"glyphName":"M","glyphIndex":5,"word":2}'
        ></path>
        <path
          d="M262.53583,278.94195c-0.0133,-0.03103 -0.03658,-0.08645 -0.06983,-0.16625c-0.03325,-0.0798 -0.07426,-0.17734 -0.12303,-0.2926c-0.04877,-0.11527 -0.10197,-0.24273 -0.1596,-0.38238c-0.05763,-0.13965 -0.11748,-0.28485 -0.17955,-0.43558h-1.66917l-0.53201,1.27682h-0.80466c0.01773,-0.0399 0.05985,-0.13854 0.12635,-0.29593c0.0665,-0.15739 0.14963,-0.35245 0.24938,-0.58521c0.09975,-0.23275 0.21059,-0.49211 0.3325,-0.77806c0.12192,-0.28595 0.24716,-0.57745 0.37573,-0.87449c0.12857,-0.29704 0.25381,-0.58853 0.37573,-0.87449c0.12192,-0.28595 0.23275,-0.54531 0.3325,-0.77806c0.09975,-0.23275 0.18288,-0.42782 0.24938,-0.58521c0.0665,-0.15739 0.10862,-0.25603 0.12635,-0.29593c0.01773,0.0399 0.06096,0.13854 0.12968,0.29593c0.06872,0.15739 0.15295,0.35245 0.2527,0.58521c0.09975,0.23275 0.21059,0.49211 0.3325,0.77806c0.12192,0.28595 0.24716,0.57745 0.37573,0.87449c0.12857,0.29704 0.25381,0.58853 0.37573,0.87449c0.12192,0.28595 0.23275,0.54531 0.3325,0.77806c0.09975,0.23275 0.18288,0.42782 0.24938,0.58521c0.0665,0.15739 0.10862,0.25603 0.12635,0.29593zM260.61396,276.98018h1.10391l-0.47881,-1.15711c-0.00443,-0.00443 -0.01552,-0.03436 -0.03325,-0.08978c-0.01773,-0.05542 -0.03103,-0.10529 -0.0399,-0.14963c-0.00887,0.04433 -0.02217,0.09421 -0.0399,0.14963c-0.01773,0.05542 -0.0266,0.08534 -0.0266,0.08978z"
          data-paper-data='{"glyphName":"A","glyphIndex":6,"lastGlyphOfWord":true,"word":2}'
        ></path>
        <path
          d="M267.99333,273.88124c0.02217,0.03103 0.07093,0.10086 0.1463,0.20948c0.07537,0.10862 0.16958,0.24162 0.28263,0.399c0.11305,0.15739 0.2394,0.3314 0.37905,0.52203c0.13965,0.19064 0.28152,0.3846 0.42561,0.58188c0.14409,0.19729 0.28485,0.39014 0.42228,0.57856c0.13744,0.18842 0.26157,0.36021 0.3724,0.51538c0.11083,0.15517 0.20504,0.28485 0.28263,0.38903c0.07758,0.10418 0.12524,0.16958 0.14298,0.19618c0.00887,-0.0133 0.04877,-0.06983 0.1197,-0.16958c0.07093,-0.09975 0.16071,-0.22499 0.26933,-0.37573c0.10862,-0.15074 0.23164,-0.32253 0.36908,-0.51538c0.13744,-0.19285 0.2793,-0.38903 0.42561,-0.58853c0.1463,-0.1995 0.28928,-0.39679 0.42893,-0.59186c0.13965,-0.19507 0.26822,-0.3724 0.3857,-0.53201c0.11748,-0.1596 0.21613,-0.29482 0.29593,-0.40565c0.0798,-0.11083 0.13078,-0.18177 0.15295,-0.2128v5.06071h-0.87116v-2.47383c0,-0.03547 0.00443,-0.07315 0.0133,-0.11305c0.00887,-0.0399 0.0133,-0.06428 0.0133,-0.07315l-1.60267,2.30758c-0.02217,-0.0266 -0.07648,-0.09975 -0.16293,-0.21945c-0.08645,-0.1197 -0.18953,-0.26157 -0.30923,-0.42561c-0.1197,-0.16404 -0.24605,-0.34026 -0.37905,-0.52868c-0.133,-0.18842 -0.25824,-0.36354 -0.37573,-0.52536c-0.11748,-0.16182 -0.21724,-0.29925 -0.29925,-0.41231c-0.08202,-0.11305 -0.12746,-0.17844 -0.13633,-0.19618c0,0.00887 0.00443,0.03325 0.0133,0.07315c0.00887,0.0399 0.0133,0.07758 0.0133,0.11305v2.47383h-0.81796z"
          data-paper-data='{"glyphName":"M","glyphIndex":7,"firstGlyphOfWord":true,"word":3}'
        ></path>
        <path
          d="M279.18098,278.94195c-0.01773,-0.0399 -0.05985,-0.13854 -0.12635,-0.29593c-0.0665,-0.15739 -0.14963,-0.35245 -0.24938,-0.58521c-0.09975,-0.23275 -0.21059,-0.49211 -0.3325,-0.77806c-0.12192,-0.28595 -0.24716,-0.57745 -0.37573,-0.87449c-0.12857,-0.29704 -0.25381,-0.58853 -0.37573,-0.87449c-0.12192,-0.28595 -0.23275,-0.54531 -0.3325,-0.77806c-0.09975,-0.23275 -0.18399,-0.42782 -0.2527,-0.58521c-0.06872,-0.15739 -0.11194,-0.25603 -0.12968,-0.29593c-0.01773,0.0399 -0.05985,0.13854 -0.12635,0.29593c-0.0665,0.15739 -0.14963,0.35245 -0.24938,0.58521c-0.09975,0.23275 -0.21059,0.49211 -0.3325,0.77806c-0.12192,0.28595 -0.24716,0.57745 -0.37573,0.87449c-0.12857,0.29704 -0.25381,0.58853 -0.37573,0.87449c-0.12192,0.28595 -0.23275,0.54531 -0.3325,0.77806c-0.09975,0.23275 -0.18288,0.42782 -0.24938,0.58521c-0.0665,0.15739 -0.10862,0.25603 -0.12635,0.29593h0.80466l0.53201,-1.27682h1.66917c0.06207,0.15074 0.12192,0.29593 0.17955,0.43558c0.05763,0.13965 0.11083,0.26711 0.1596,0.38238c0.04877,0.11527 0.08978,0.2128 0.12303,0.2926c0.03325,0.0798 0.05653,0.13522 0.06983,0.16625zM276.93991,275.82306c0,-0.00443 0.00887,-0.03436 0.0266,-0.08978c0.01773,-0.05542 0.03103,-0.10529 0.0399,-0.14963c0.00887,0.04433 0.02217,0.09421 0.0399,0.14963c0.01773,0.05542 0.02882,0.08534 0.03325,0.08978l0.47881,1.15711h-1.10391zM276.66725,273.82139c0.10197,-0.1463 0.20283,-0.29482 0.30258,-0.44556c0.09975,-0.15074 0.20061,-0.30147 0.30258,-0.45221h0.68496c-0.133,0.15074 -0.26822,0.30147 -0.40565,0.45221c-0.13744,0.15074 -0.27487,0.29925 -0.41231,0.44556z"
          data-paper-data='{"glyphName":"Á","glyphIndex":8,"word":3}'
        ></path>
        <path
          d="M283.98456,274.3667l-0.2926,0.66501c-0.1862,-0.0665 -0.37019,-0.1197 -0.55196,-0.1596c-0.18177,-0.0399 -0.35024,-0.05985 -0.50541,-0.05985c-0.27044,0 -0.48435,0.0532 -0.64173,0.1596c-0.15739,0.1064 -0.23608,0.24162 -0.23608,0.40565c0,0.14187 0.05874,0.25714 0.17623,0.3458c0.11748,0.08867 0.26489,0.16847 0.44223,0.2394c0.17734,0.07093 0.36908,0.14298 0.57523,0.21613c0.20615,0.07315 0.3979,0.16736 0.57523,0.28263c0.17734,0.11527 0.32475,0.26157 0.44223,0.43891c0.11748,0.17734 0.17623,0.40344 0.17623,0.67831c0,0.2128 -0.03879,0.40565 -0.11638,0.57856c-0.07758,0.1729 -0.19396,0.32142 -0.34913,0.44556c-0.15517,0.12413 -0.35135,0.22056 -0.58853,0.28928c-0.23719,0.06872 -0.51538,0.10308 -0.83459,0.10308c-0.19507,0 -0.3724,-0.0133 -0.53201,-0.0399c-0.1596,-0.0266 -0.30258,-0.05985 -0.42893,-0.09975c-0.12635,-0.0399 -0.23829,-0.08313 -0.33583,-0.12968c-0.09753,-0.04655 -0.18177,-0.09199 -0.2527,-0.13633l0.35245,-0.71156c0.1862,0.10197 0.3857,0.18066 0.59851,0.23608c0.2128,0.05542 0.40122,0.08313 0.56526,0.08313c0.0798,0 0.18288,-0.00887 0.30923,-0.0266c0.12635,-0.01773 0.24938,-0.05098 0.36908,-0.09975c0.1197,-0.04877 0.22278,-0.11527 0.30923,-0.1995c0.08645,-0.08423 0.12968,-0.19285 0.12968,-0.32585c0,-0.15517 -0.05874,-0.28263 -0.17623,-0.38238c-0.11748,-0.09975 -0.26489,-0.18842 -0.44223,-0.266c-0.17734,-0.07758 -0.36908,-0.15406 -0.57523,-0.22943c-0.20615,-0.07537 -0.3979,-0.16514 -0.57523,-0.26933c-0.17734,-0.10418 -0.32475,-0.23275 -0.44223,-0.3857c-0.11748,-0.15295 -0.17623,-0.34691 -0.17623,-0.58188c0,-0.16847 0.03325,-0.33361 0.09975,-0.49543c0.0665,-0.16182 0.16736,-0.30701 0.30258,-0.43558c0.13522,-0.12857 0.30369,-0.23275 0.50541,-0.31255c0.20172,-0.0798 0.44001,-0.1197 0.71488,-0.1197c0.1729,0 0.34026,0.01441 0.50208,0.04323c0.16182,0.02882 0.30701,0.06096 0.43558,0.09643c0.12857,0.03547 0.23497,0.06983 0.3192,0.10308c0.08423,0.03325 0.13522,0.05209 0.15295,0.05653z"
          data-paper-data='{"glyphName":"S","glyphIndex":9,"lastGlyphOfWord":true,"word":3}'
        ></path>
        <path
          d="M289.20931,274.09404h0.81796v4.84791h-0.81796z"
          data-paper-data='{"glyphName":"I","glyphIndex":10,"firstGlyphOfWord":true,"word":4}'
        ></path>
        <path
          d="M296.81257,274.09404v5.07401c-0.03103,-0.0399 -0.09975,-0.11305 -0.20615,-0.21945c-0.1064,-0.1064 -0.23719,-0.23386 -0.39235,-0.38238c-0.15517,-0.14852 -0.32696,-0.31255 -0.51538,-0.49211c-0.18842,-0.17955 -0.38016,-0.36132 -0.57523,-0.54531c-0.19507,-0.18399 -0.3857,-0.36465 -0.57191,-0.54198c-0.1862,-0.17734 -0.35578,-0.34026 -0.50873,-0.48878c-0.15295,-0.14852 -0.28152,-0.27487 -0.3857,-0.37905c-0.10418,-0.10418 -0.17179,-0.17623 -0.20283,-0.21613c-0.00443,-0.00887 -0.02217,-0.03214 -0.0532,-0.06983c-0.03103,-0.03768 -0.05763,-0.07204 -0.0798,-0.10308l0.01995,0.2128v2.99919h-0.81131v-5.06736c0.03103,0.0399 0.09975,0.11194 0.20615,0.21613c0.1064,0.10418 0.23719,0.22943 0.39235,0.37573c0.15517,0.1463 0.32696,0.3059 0.51538,0.47881c0.18842,0.1729 0.38016,0.34913 0.57523,0.52868c0.19507,0.17955 0.3857,0.35689 0.57191,0.53201c0.1862,0.17512 0.35689,0.33472 0.51206,0.47881c0.15517,0.14409 0.28485,0.26711 0.38903,0.36908c0.10418,0.10197 0.17179,0.1729 0.20283,0.2128l0.12635,0.1862l-0.01995,-0.2261v-2.93269z"
          data-paper-data='{"glyphName":"N","glyphIndex":11,"word":4}'
        ></path>
        <path
          d="M302.2213,274.09404v0.77806h-1.19701v4.06985h-0.81796v-4.06985h-1.17041v-0.77806z"
          data-paper-data='{"glyphName":"T","glyphIndex":12,"word":4}'
        ></path>
        <path
          d="M304.44464,278.94195v-4.84791h3.21864v0.73816h-2.40733v1.30342h2.14133v0.75811h-2.14133v1.29012h2.50043v0.75811z"
          data-paper-data='{"glyphName":"E","glyphIndex":13,"word":4}'
        ></path>
        <path
          d="M309.94648,278.94195v-4.84791h0.81131v4.0765h2.35413v0.77141z"
          data-paper-data='{"glyphName":"L","glyphIndex":14,"word":4}'
        ></path>
        <path
          d="M315.15571,274.09404h0.81796v4.84791h-0.81796z"
          data-paper-data='{"glyphName":"I","glyphIndex":15,"word":4}'
        ></path>
        <path
          d="M322.14051,276.58782v2.06153c-0.1862,0.11083 -0.4112,0.19618 -0.67498,0.25603c-0.26379,0.05985 -0.53311,0.08978 -0.80798,0.08978c-0.38127,0 -0.72597,-0.05985 -1.03409,-0.17955c-0.30812,-0.1197 -0.5708,-0.28374 -0.78803,-0.49211c-0.21724,-0.20837 -0.38349,-0.45664 -0.49876,-0.74481c-0.11527,-0.28817 -0.1729,-0.60294 -0.1729,-0.94431c0,-0.3857 0.06872,-0.73705 0.20615,-1.05404c0.13744,-0.31699 0.32253,-0.58964 0.55528,-0.81796c0.23275,-0.22832 0.50319,-0.40565 0.81131,-0.53201c0.30812,-0.12635 0.63287,-0.18953 0.97424,-0.18953c0.11527,0 0.23608,0.00776 0.36243,0.02328c0.12635,0.01552 0.25159,0.03879 0.37573,0.06983c0.12413,0.03103 0.24384,0.06761 0.3591,0.10973c0.11527,0.04212 0.21945,0.09199 0.31255,0.14963l-0.399,0.66501c-0.06207,-0.0399 -0.13633,-0.07426 -0.22278,-0.10308c-0.08645,-0.02882 -0.17623,-0.05431 -0.26933,-0.07648c-0.0931,-0.02217 -0.18509,-0.03879 -0.27598,-0.04988c-0.09088,-0.01108 -0.17623,-0.01663 -0.25603,-0.01663c-0.2261,0 -0.44223,0.04544 -0.64838,0.13633c-0.20615,0.09088 -0.38903,0.21391 -0.54863,0.36908c-0.1596,0.15517 -0.28706,0.34026 -0.38238,0.55528c-0.09532,0.21502 -0.14298,0.44445 -0.14298,0.68828c0,0.22167 0.04212,0.43226 0.12635,0.63176c0.08423,0.1995 0.20172,0.37573 0.35245,0.52868c0.15074,0.15295 0.33029,0.27487 0.53866,0.36575c0.20837,0.09088 0.43669,0.13633 0.68496,0.13633c0.08867,0 0.1995,-0.00776 0.3325,-0.02328c0.133,-0.01552 0.25935,-0.04323 0.37905,-0.08313v-0.82461h-0.90441v-0.70491z"
          data-paper-data='{"glyphName":"G","glyphIndex":16,"word":4}'
        ></path>
        <path
          d="M324.437,278.94195v-4.84791h3.21864v0.73816h-2.40733v1.30342h2.14133v0.75811h-2.14133v1.29012h2.50043v0.75811z"
          data-paper-data='{"glyphName":"E","glyphIndex":17,"word":4}'
        ></path>
        <path
          d="M334.22149,274.09404v5.07401c-0.03103,-0.0399 -0.09975,-0.11305 -0.20615,-0.21945c-0.1064,-0.1064 -0.23719,-0.23386 -0.39235,-0.38238c-0.15517,-0.14852 -0.32696,-0.31255 -0.51538,-0.49211c-0.18842,-0.17955 -0.38016,-0.36132 -0.57523,-0.54531c-0.19507,-0.18399 -0.3857,-0.36465 -0.57191,-0.54198c-0.1862,-0.17734 -0.35578,-0.34026 -0.50873,-0.48878c-0.15295,-0.14852 -0.28152,-0.27487 -0.3857,-0.37905c-0.10418,-0.10418 -0.17179,-0.17623 -0.20283,-0.21613c-0.00443,-0.00887 -0.02217,-0.03214 -0.0532,-0.06983c-0.03103,-0.03768 -0.05763,-0.07204 -0.0798,-0.10308l0.01995,0.2128v2.99919h-0.81131v-5.06736c0.03103,0.0399 0.09975,0.11194 0.20615,0.21613c0.1064,0.10418 0.23719,0.22943 0.39235,0.37573c0.15517,0.1463 0.32696,0.3059 0.51538,0.47881c0.18842,0.1729 0.38016,0.34913 0.57523,0.52868c0.19507,0.17955 0.3857,0.35689 0.57191,0.53201c0.1862,0.17512 0.35689,0.33472 0.51206,0.47881c0.15517,0.14409 0.28485,0.26711 0.38903,0.36908c0.10418,0.10197 0.17179,0.1729 0.20283,0.2128l0.12635,0.1862l-0.01995,-0.2261v-2.93269z"
          data-paper-data='{"glyphName":"N","glyphIndex":18,"word":4}'
        ></path>
        <path
          d="M339.63022,274.09404v0.77806h-1.19701v4.06985h-0.81796v-4.06985h-1.17041v-0.77806z"
          data-paper-data='{"glyphName":"T","glyphIndex":19,"word":4}'
        ></path>
        <path
          d="M341.85356,278.94195v-4.84791h3.21864v0.73816h-2.40733v1.30342h2.14133v0.75811h-2.14133v1.29012h2.50043v0.75811z"
          data-paper-data='{"glyphName":"E","glyphIndex":20,"lastGlyphOfWord":true,"word":4}'
        ></path>
        <path
          d="M350.25705,274.09404h1.25687c0.48767,0 0.90109,0.07426 1.24024,0.22278c0.33915,0.14852 0.61513,0.34026 0.82794,0.57523c0.2128,0.23497 0.36686,0.50208 0.46218,0.80133c0.09532,0.29925 0.14298,0.5974 0.14298,0.89444c0,0.36354 -0.06539,0.6905 -0.19618,0.98089c-0.13078,0.29039 -0.30701,0.53755 -0.52868,0.74148c-0.22167,0.20394 -0.47991,0.36021 -0.77473,0.46883c-0.29482,0.10862 -0.60627,0.16293 -0.93434,0.16293h-1.49627zM351.62697,278.17054c0.2527,0 0.48546,-0.03547 0.69826,-0.1064c0.2128,-0.07093 0.39679,-0.17623 0.55196,-0.31588c0.15517,-0.13965 0.27598,-0.31034 0.36243,-0.51206c0.08645,-0.20172 0.12968,-0.43558 0.12968,-0.70158c0,-0.30147 -0.05209,-0.5575 -0.15628,-0.76808c-0.10418,-0.21059 -0.23608,-0.38127 -0.39568,-0.51206c-0.1596,-0.13078 -0.33694,-0.2261 -0.53201,-0.28595c-0.19507,-0.05985 -0.38127,-0.08978 -0.55861,-0.08978h-0.65171v3.29179z"
          data-paper-data='{"glyphName":"D","glyphIndex":21,"firstGlyphOfWord":true,"word":5}'
        ></path>
        <path
          d="M356.38399,278.94195v-4.84791h3.21864v0.73816h-2.40733v1.30342h2.14133v0.75811h-2.14133v1.29012h2.50043v0.75811z"
          data-paper-data='{"glyphName":"E","glyphIndex":22,"lastGlyphOfWord":true,"word":5}'
        ></path>
        <path
          d="M368.45167,276.58782v2.06153c-0.1862,0.11083 -0.4112,0.19618 -0.67498,0.25603c-0.26379,0.05985 -0.53311,0.08978 -0.80798,0.08978c-0.38127,0 -0.72597,-0.05985 -1.03409,-0.17955c-0.30812,-0.1197 -0.5708,-0.28374 -0.78803,-0.49211c-0.21724,-0.20837 -0.38349,-0.45664 -0.49876,-0.74481c-0.11527,-0.28817 -0.1729,-0.60294 -0.1729,-0.94431c0,-0.3857 0.06872,-0.73705 0.20615,-1.05404c0.13744,-0.31699 0.32253,-0.58964 0.55528,-0.81796c0.23275,-0.22832 0.50319,-0.40565 0.81131,-0.53201c0.30812,-0.12635 0.63287,-0.18953 0.97424,-0.18953c0.11527,0 0.23608,0.00776 0.36243,0.02328c0.12635,0.01552 0.25159,0.03879 0.37573,0.06983c0.12413,0.03103 0.24384,0.06761 0.3591,0.10973c0.11527,0.04212 0.21945,0.09199 0.31255,0.14963l-0.399,0.66501c-0.06207,-0.0399 -0.13633,-0.07426 -0.22278,-0.10308c-0.08645,-0.02882 -0.17623,-0.05431 -0.26933,-0.07648c-0.0931,-0.02217 -0.18509,-0.03879 -0.27598,-0.04988c-0.09088,-0.01108 -0.17623,-0.01663 -0.25603,-0.01663c-0.2261,0 -0.44223,0.04544 -0.64838,0.13633c-0.20615,0.09088 -0.38903,0.21391 -0.54863,0.36908c-0.1596,0.15517 -0.28706,0.34026 -0.38238,0.55528c-0.09532,0.21502 -0.14298,0.44445 -0.14298,0.68828c0,0.22167 0.04212,0.43226 0.12635,0.63176c0.08423,0.1995 0.20172,0.37573 0.35245,0.52868c0.15074,0.15295 0.33029,0.27487 0.53866,0.36575c0.20837,0.09088 0.43669,0.13633 0.68496,0.13633c0.08867,0 0.1995,-0.00776 0.3325,-0.02328c0.133,-0.01552 0.25935,-0.04323 0.37905,-0.08313v-0.82461h-0.90441v-0.70491z"
          data-paper-data='{"glyphName":"G","glyphIndex":23,"firstGlyphOfWord":true,"word":6}'
        ></path>
        <path
          d="M370.74817,278.94195v-4.84791h3.21864v0.73816h-2.40733v1.30342h2.14133v0.75811h-2.14133v1.29012h2.50043v0.75811z"
          data-paper-data='{"glyphName":"E","glyphIndex":24,"word":6}'
        ></path>
        <path
          d="M379.10953,274.3667l-0.2926,0.66501c-0.1862,-0.0665 -0.37019,-0.1197 -0.55196,-0.1596c-0.18177,-0.0399 -0.35024,-0.05985 -0.50541,-0.05985c-0.27044,0 -0.48435,0.0532 -0.64173,0.1596c-0.15739,0.1064 -0.23608,0.24162 -0.23608,0.40565c0,0.14187 0.05874,0.25714 0.17623,0.3458c0.11748,0.08867 0.26489,0.16847 0.44223,0.2394c0.17734,0.07093 0.36908,0.14298 0.57523,0.21613c0.20615,0.07315 0.3979,0.16736 0.57523,0.28263c0.17734,0.11527 0.32475,0.26157 0.44223,0.43891c0.11748,0.17734 0.17623,0.40344 0.17623,0.67831c0,0.2128 -0.03879,0.40565 -0.11638,0.57856c-0.07758,0.1729 -0.19396,0.32142 -0.34913,0.44556c-0.15517,0.12413 -0.35135,0.22056 -0.58853,0.28928c-0.23719,0.06872 -0.51538,0.10308 -0.83459,0.10308c-0.19507,0 -0.3724,-0.0133 -0.53201,-0.0399c-0.1596,-0.0266 -0.30258,-0.05985 -0.42893,-0.09975c-0.12635,-0.0399 -0.23829,-0.08313 -0.33583,-0.12968c-0.09753,-0.04655 -0.18177,-0.09199 -0.2527,-0.13633l0.35245,-0.71156c0.1862,0.10197 0.3857,0.18066 0.59851,0.23608c0.2128,0.05542 0.40122,0.08313 0.56526,0.08313c0.0798,0 0.18288,-0.00887 0.30923,-0.0266c0.12635,-0.01773 0.24938,-0.05098 0.36908,-0.09975c0.1197,-0.04877 0.22278,-0.11527 0.30923,-0.1995c0.08645,-0.08423 0.12968,-0.19285 0.12968,-0.32585c0,-0.15517 -0.05874,-0.28263 -0.17623,-0.38238c-0.11748,-0.09975 -0.26489,-0.18842 -0.44223,-0.266c-0.17734,-0.07758 -0.36908,-0.15406 -0.57523,-0.22943c-0.20615,-0.07537 -0.3979,-0.16514 -0.57523,-0.26933c-0.17734,-0.10418 -0.32475,-0.23275 -0.44223,-0.3857c-0.11748,-0.15295 -0.17623,-0.34691 -0.17623,-0.58188c0,-0.16847 0.03325,-0.33361 0.09975,-0.49543c0.0665,-0.16182 0.16736,-0.30701 0.30258,-0.43558c0.13522,-0.12857 0.30369,-0.23275 0.50541,-0.31255c0.20172,-0.0798 0.44001,-0.1197 0.71488,-0.1197c0.1729,0 0.34026,0.01441 0.50208,0.04323c0.16182,0.02882 0.30701,0.06096 0.43558,0.09643c0.12857,0.03547 0.23497,0.06983 0.3192,0.10308c0.08423,0.03325 0.13522,0.05209 0.15295,0.05653z"
          data-paper-data='{"glyphName":"S","glyphIndex":25,"word":6}'
        ></path>
        <path
          d="M384.33871,274.09404v0.77806h-1.19701v4.06985h-0.81796v-4.06985h-1.17041v-0.77806z"
          data-paper-data='{"glyphName":"T","glyphIndex":26,"word":6}'
        ></path>
        <path
          d="M386.56206,274.09404h0.81796v4.84791h-0.81796z"
          data-paper-data='{"glyphName":"I","glyphIndex":27,"word":6}'
        ></path>
        <path
          d="M389.56346,276.52797c0,-0.33694 0.06539,-0.65614 0.19618,-0.95761c0.13078,-0.30147 0.30812,-0.56526 0.53201,-0.79136c0.22389,-0.2261 0.48546,-0.40565 0.78471,-0.53866c0.29925,-0.133 0.61957,-0.1995 0.96094,-0.1995c0.33694,0 0.65614,0.0665 0.95761,0.1995c0.30147,0.133 0.56526,0.31255 0.79136,0.53866c0.2261,0.2261 0.40455,0.48989 0.53533,0.79136c0.13078,0.30147 0.19618,0.62067 0.19618,0.95761c0,0.34137 -0.06539,0.66168 -0.19618,0.96094c-0.13078,0.29925 -0.30923,0.56082 -0.53533,0.78471c-0.2261,0.22389 -0.48989,0.40011 -0.79136,0.52868c-0.30147,0.12857 -0.62067,0.19285 -0.95761,0.19285c-0.34137,0 -0.66168,-0.06428 -0.96094,-0.19285c-0.29925,-0.12857 -0.56082,-0.3048 -0.78471,-0.52868c-0.22389,-0.22389 -0.40122,-0.48546 -0.53201,-0.78471c-0.13078,-0.29925 -0.19618,-0.61957 -0.19618,-0.96094zM390.38142,276.52797c0,0.23497 0.04323,0.45553 0.12968,0.66168c0.08645,0.20615 0.20615,0.3857 0.3591,0.53866c0.15295,0.15295 0.33029,0.27376 0.53201,0.36243c0.20172,0.08867 0.42006,0.133 0.65503,0.133c0.2261,0 0.44001,-0.04433 0.64173,-0.133c0.20172,-0.08867 0.37684,-0.20948 0.52536,-0.36243c0.14852,-0.15295 0.266,-0.3325 0.35245,-0.53866c0.08645,-0.20615 0.12968,-0.42671 0.12968,-0.66168c0,-0.23497 -0.04433,-0.45553 -0.133,-0.66168c-0.08867,-0.20615 -0.20837,-0.38681 -0.3591,-0.54198c-0.15074,-0.15517 -0.32696,-0.27709 -0.52868,-0.36575c-0.20172,-0.08867 -0.41785,-0.133 -0.64838,-0.133c-0.23054,0 -0.44666,0.04433 -0.64838,0.133c-0.20172,0.08867 -0.37684,0.21059 -0.52536,0.36575c-0.14852,0.15517 -0.266,0.33583 -0.35245,0.54198c-0.08645,0.20615 -0.12968,0.42671 -0.12968,0.66168z"
          data-paper-data='{"glyphName":"O","glyphIndex":28,"word":6}'
        ></path>
        <path
          d="M400.98387,274.09404v5.07401c-0.03103,-0.0399 -0.09975,-0.11305 -0.20615,-0.21945c-0.1064,-0.1064 -0.23719,-0.23386 -0.39235,-0.38238c-0.15517,-0.14852 -0.32696,-0.31255 -0.51538,-0.49211c-0.18842,-0.17955 -0.38016,-0.36132 -0.57523,-0.54531c-0.19507,-0.18399 -0.3857,-0.36465 -0.57191,-0.54198c-0.1862,-0.17734 -0.35578,-0.34026 -0.50873,-0.48878c-0.15295,-0.14852 -0.28152,-0.27487 -0.3857,-0.37905c-0.10418,-0.10418 -0.17179,-0.17623 -0.20283,-0.21613c-0.00443,-0.00887 -0.02217,-0.03214 -0.0532,-0.06983c-0.03103,-0.03768 -0.05763,-0.07204 -0.0798,-0.10308l0.01995,0.2128v2.99919h-0.81131v-5.06736c0.03103,0.0399 0.09975,0.11194 0.20615,0.21613c0.1064,0.10418 0.23719,0.22943 0.39235,0.37573c0.15517,0.1463 0.32696,0.3059 0.51538,0.47881c0.18842,0.1729 0.38016,0.34913 0.57523,0.52868c0.19507,0.17955 0.3857,0.35689 0.57191,0.53201c0.1862,0.17512 0.35689,0.33472 0.51206,0.47881c0.15517,0.14409 0.28485,0.26711 0.38903,0.36908c0.10418,0.10197 0.17179,0.1729 0.20283,0.2128l0.12635,0.1862l-0.01995,-0.2261v-2.93269z"
          data-paper-data='{"glyphName":"N","glyphIndex":29,"word":6}'
        ></path>
        <path
          d="M406.46575,278.94195c-0.0133,-0.03103 -0.03658,-0.08645 -0.06983,-0.16625c-0.03325,-0.0798 -0.07426,-0.17734 -0.12303,-0.2926c-0.04877,-0.11527 -0.10197,-0.24273 -0.1596,-0.38238c-0.05763,-0.13965 -0.11748,-0.28485 -0.17955,-0.43558h-1.66917l-0.53201,1.27682h-0.80466c0.01773,-0.0399 0.05985,-0.13854 0.12635,-0.29593c0.0665,-0.15739 0.14963,-0.35245 0.24938,-0.58521c0.09975,-0.23275 0.21059,-0.49211 0.3325,-0.77806c0.12192,-0.28595 0.24716,-0.57745 0.37573,-0.87449c0.12857,-0.29704 0.25381,-0.58853 0.37573,-0.87449c0.12192,-0.28595 0.23275,-0.54531 0.3325,-0.77806c0.09975,-0.23275 0.18288,-0.42782 0.24938,-0.58521c0.0665,-0.15739 0.10862,-0.25603 0.12635,-0.29593c0.01773,0.0399 0.06096,0.13854 0.12968,0.29593c0.06872,0.15739 0.15295,0.35245 0.2527,0.58521c0.09975,0.23275 0.21059,0.49211 0.3325,0.77806c0.12192,0.28595 0.24716,0.57745 0.37573,0.87449c0.12857,0.29704 0.25381,0.58853 0.37573,0.87449c0.12192,0.28595 0.23275,0.54531 0.3325,0.77806c0.09975,0.23275 0.18288,0.42782 0.24938,0.58521c0.0665,0.15739 0.10862,0.25603 0.12635,0.29593zM404.54388,276.98018h1.10391l-0.47881,-1.15711c-0.00443,-0.00443 -0.01552,-0.03436 -0.03325,-0.08978c-0.01773,-0.05542 -0.03103,-0.10529 -0.0399,-0.14963c-0.00887,0.04433 -0.02217,0.09421 -0.0399,0.14963c-0.01773,0.05542 -0.0266,0.08534 -0.0266,0.08978z"
          data-paper-data='{"glyphName":"A","glyphIndex":30,"word":6}'
        ></path>
        <path
          d="M409.21445,278.94195v-4.84791h1.36992c0.266,0 0.50873,0.03547 0.72818,0.1064c0.21945,0.07093 0.40565,0.1729 0.55861,0.3059c0.15295,0.133 0.27154,0.29704 0.35578,0.49211c0.08423,0.19507 0.12635,0.41452 0.12635,0.65836c0,0.133 -0.0133,0.266 -0.0399,0.399c-0.0266,0.133 -0.06872,0.26157 -0.12635,0.3857c-0.05763,0.12413 -0.133,0.23829 -0.2261,0.34248c-0.0931,0.10418 -0.20394,0.19396 -0.3325,0.26933c0.09753,0.15517 0.19285,0.30701 0.28595,0.45553c0.0931,0.14852 0.18731,0.29815 0.28263,0.44888c0.09532,0.15074 0.19396,0.3059 0.29593,0.46551c0.10197,0.1596 0.2128,0.3325 0.3325,0.51871h-0.97756c-0.1995,-0.31034 -0.38792,-0.60405 -0.56526,-0.88114c-0.17734,-0.27709 -0.34802,-0.53976 -0.51206,-0.78803h-0.0665h-0.67831v1.66917zM410.02576,276.50802h0.65171c0.16847,0 0.30812,-0.02882 0.41896,-0.08645c0.11083,-0.05763 0.1995,-0.12746 0.266,-0.20948c0.0665,-0.08202 0.11305,-0.17069 0.13965,-0.266c0.0266,-0.09532 0.0399,-0.18288 0.0399,-0.26268c0,-0.07537 -0.01219,-0.16071 -0.03658,-0.25603c-0.02438,-0.09532 -0.06872,-0.18509 -0.133,-0.26933c-0.06428,-0.08423 -0.15184,-0.15517 -0.26268,-0.2128c-0.11083,-0.05763 -0.2527,-0.08645 -0.42561,-0.08645h-0.65836z"
          data-paper-data='{"glyphName":"R","glyphIndex":31,"lastGlyphOfWord":true,"word":6}'
        ></path>
        <path
          d="M420.45087,274.09404v0.77806h-1.19701v4.06985h-0.81796v-4.06985h-1.17041v-0.77806z"
          data-paper-data='{"glyphName":"T","glyphIndex":32,"firstGlyphOfWord":true,"word":7}'
        ></path>
        <path
          d="M424.50299,278.99515c-0.26157,0 -0.50651,-0.04323 -0.73483,-0.12968c-0.22832,-0.08645 -0.42671,-0.20726 -0.59518,-0.36243c-0.16847,-0.15517 -0.30147,-0.34248 -0.399,-0.56193c-0.09753,-0.21945 -0.1463,-0.46218 -0.1463,-0.72818v-3.11889h0.81131v3.09894c0,0.14187 0.02771,0.27487 0.08313,0.399c0.05542,0.12413 0.13078,0.23275 0.2261,0.32585c0.09532,0.0931 0.20726,0.16736 0.33583,0.22278c0.12857,0.05542 0.26822,0.08313 0.41896,0.08313c0.15074,0 0.2915,-0.02771 0.42228,-0.08313c0.13078,-0.05542 0.24494,-0.12968 0.34248,-0.22278c0.09753,-0.0931 0.17401,-0.20172 0.22943,-0.32585c0.05542,-0.12413 0.08313,-0.25714 0.08313,-0.399v-3.09894h0.81131v3.11889c0,0.266 -0.04877,0.50873 -0.1463,0.72818c-0.09753,0.21945 -0.23164,0.40676 -0.40233,0.56193c-0.17069,0.15517 -0.3713,0.27598 -0.60183,0.36243c-0.23054,0.08645 -0.47659,0.12968 -0.73816,0.12968z"
          data-paper-data='{"glyphName":"U","glyphIndex":33,"word":7}'
        ></path>
        <path
          d="M431.70724,274.3667l-0.2926,0.66501c-0.1862,-0.0665 -0.37019,-0.1197 -0.55196,-0.1596c-0.18177,-0.0399 -0.35024,-0.05985 -0.50541,-0.05985c-0.27044,0 -0.48435,0.0532 -0.64173,0.1596c-0.15739,0.1064 -0.23608,0.24162 -0.23608,0.40565c0,0.14187 0.05874,0.25714 0.17623,0.3458c0.11748,0.08867 0.26489,0.16847 0.44223,0.2394c0.17734,0.07093 0.36908,0.14298 0.57523,0.21613c0.20615,0.07315 0.3979,0.16736 0.57523,0.28263c0.17734,0.11527 0.32475,0.26157 0.44223,0.43891c0.11748,0.17734 0.17623,0.40344 0.17623,0.67831c0,0.2128 -0.03879,0.40565 -0.11638,0.57856c-0.07758,0.1729 -0.19396,0.32142 -0.34913,0.44556c-0.15517,0.12413 -0.35135,0.22056 -0.58853,0.28928c-0.23719,0.06872 -0.51538,0.10308 -0.83459,0.10308c-0.19507,0 -0.3724,-0.0133 -0.53201,-0.0399c-0.1596,-0.0266 -0.30258,-0.05985 -0.42893,-0.09975c-0.12635,-0.0399 -0.23829,-0.08313 -0.33583,-0.12968c-0.09753,-0.04655 -0.18177,-0.09199 -0.2527,-0.13633l0.35245,-0.71156c0.1862,0.10197 0.3857,0.18066 0.59851,0.23608c0.2128,0.05542 0.40122,0.08313 0.56526,0.08313c0.0798,0 0.18288,-0.00887 0.30923,-0.0266c0.12635,-0.01773 0.24938,-0.05098 0.36908,-0.09975c0.1197,-0.04877 0.22278,-0.11527 0.30923,-0.1995c0.08645,-0.08423 0.12968,-0.19285 0.12968,-0.32585c0,-0.15517 -0.05874,-0.28263 -0.17623,-0.38238c-0.11748,-0.09975 -0.26489,-0.18842 -0.44223,-0.266c-0.17734,-0.07758 -0.36908,-0.15406 -0.57523,-0.22943c-0.20615,-0.07537 -0.3979,-0.16514 -0.57523,-0.26933c-0.17734,-0.10418 -0.32475,-0.23275 -0.44223,-0.3857c-0.11748,-0.15295 -0.17623,-0.34691 -0.17623,-0.58188c0,-0.16847 0.03325,-0.33361 0.09975,-0.49543c0.0665,-0.16182 0.16736,-0.30701 0.30258,-0.43558c0.13522,-0.12857 0.30369,-0.23275 0.50541,-0.31255c0.20172,-0.0798 0.44001,-0.1197 0.71488,-0.1197c0.1729,0 0.34026,0.01441 0.50208,0.04323c0.16182,0.02882 0.30701,0.06096 0.43558,0.09643c0.12857,0.03547 0.23497,0.06983 0.3192,0.10308c0.08423,0.03325 0.13522,0.05209 0.15295,0.05653z"
          data-paper-data='{"glyphName":"S","glyphIndex":34,"lastGlyphOfWord":true,"word":7}'
        ></path>
        <path
          d="M439.65187,274.09404v0.77806h-1.19701v4.06985h-0.81796v-4.06985h-1.17041v-0.77806z"
          data-paper-data='{"glyphName":"T","glyphIndex":35,"firstGlyphOfWord":true,"word":8}'
        ></path>
        <path
          d="M441.87522,274.09404h0.81796v4.84791h-0.81796z"
          data-paper-data='{"glyphName":"I","glyphIndex":36,"word":8}'
        ></path>
        <path
          d="M448.84672,278.58285c-0.0532,0.03547 -0.12746,0.07758 -0.22278,0.12635c-0.09532,0.04877 -0.20837,0.09421 -0.33915,0.13633c-0.13078,0.04212 -0.2782,0.07758 -0.44223,0.1064c-0.16404,0.02882 -0.33915,0.04323 -0.52536,0.04323c-0.38127,0 -0.72264,-0.06539 -1.02411,-0.19618c-0.30147,-0.13078 -0.55639,-0.30701 -0.76476,-0.52868c-0.20837,-0.22167 -0.36797,-0.48102 -0.47881,-0.77806c-0.11083,-0.29704 -0.16625,-0.60959 -0.16625,-0.93766c0,-0.36354 0.0665,-0.69937 0.1995,-1.00749c0.133,-0.30812 0.31366,-0.57412 0.54198,-0.79801c0.22832,-0.22389 0.49432,-0.3979 0.79801,-0.52203c0.30369,-0.12413 0.62843,-0.1862 0.97424,-0.1862c0.133,0 0.26711,0.00998 0.40233,0.02993c0.13522,0.01995 0.26268,0.04544 0.38238,0.07648c0.1197,0.03103 0.22499,0.0665 0.31588,0.1064c0.09088,0.0399 0.15628,0.08202 0.19618,0.12635c-0.0399,0.06207 -0.07093,0.11305 -0.0931,0.15295c-0.02217,0.0399 -0.04544,0.08091 -0.06983,0.12303c-0.02438,0.04212 -0.05098,0.08978 -0.0798,0.14298c-0.02882,0.0532 -0.06983,0.12635 -0.12303,0.21945c-0.0532,-0.03547 -0.11748,-0.0665 -0.19285,-0.0931c-0.07537,-0.0266 -0.15406,-0.04766 -0.23608,-0.06318c-0.08202,-0.01552 -0.16514,-0.02771 -0.24938,-0.03658c-0.08423,-0.00887 -0.1596,-0.0133 -0.2261,-0.0133c-0.24827,0 -0.4777,0.04655 -0.68828,0.13965c-0.21059,0.0931 -0.39235,0.21613 -0.54531,0.36908c-0.15295,0.15295 -0.27265,0.3314 -0.3591,0.53533c-0.08645,0.20394 -0.12968,0.41452 -0.12968,0.63176c0,0.2128 0.04101,0.42006 0.12303,0.62178c0.08202,0.20172 0.19729,0.38016 0.3458,0.53533c0.14852,0.15517 0.32475,0.28041 0.52868,0.37573c0.20394,0.09532 0.43004,0.14298 0.67831,0.14298c0.14187,0 0.2793,-0.01441 0.41231,-0.04323c0.133,-0.02882 0.25049,-0.06096 0.35245,-0.09643c0.10197,-0.03547 0.18509,-0.07093 0.24938,-0.1064c0.06428,-0.03547 0.09864,-0.05985 0.10308,-0.07315z"
          data-paper-data='{"glyphName":"C","glyphIndex":37,"word":8}'
        ></path>
        <path
          d="M453.67689,278.94195c-0.15517,-0.19064 -0.29925,-0.37462 -0.43226,-0.55196c-0.133,-0.17734 -0.266,-0.35356 -0.399,-0.52868c-0.133,-0.17512 -0.26711,-0.35245 -0.40233,-0.53201c-0.13522,-0.17955 -0.2782,-0.36686 -0.42893,-0.56193c-0.04877,0.0532 -0.09532,0.10086 -0.13965,0.14298c-0.04433,0.04212 -0.09088,0.08534 -0.13965,0.12968v1.90192h-0.89776v-4.84791h0.89776v1.74232c0,0.03547 -0.00222,0.07315 -0.00665,0.11305c-0.00443,0.0399 -0.00887,0.0798 -0.0133,0.1197c0.02217,-0.03103 0.04544,-0.05874 0.06983,-0.08313c0.02438,-0.02438 0.04766,-0.05431 0.06983,-0.08978c0.30147,-0.28817 0.59075,-0.58742 0.86784,-0.89776c0.27709,-0.31034 0.56637,-0.61181 0.86784,-0.90441h1.03076c-0.3325,0.35024 -0.66279,0.70491 -0.99086,1.06401c-0.32807,0.3591 -0.65614,0.71156 -0.98421,1.05736c0.1862,0.2394 0.36243,0.47216 0.52868,0.69826c0.16625,0.2261 0.3314,0.44888 0.49543,0.66833c0.16404,0.21945 0.32918,0.44112 0.49543,0.66501c0.16625,0.22389 0.34026,0.45553 0.52203,0.69493z"
          data-paper-data='{"glyphName":"K","glyphIndex":38,"word":8}'
        ></path>
        <path
          d="M456.57854,278.94195v-4.84791h3.21864v0.73816h-2.40733v1.30342h2.14133v0.75811h-2.14133v1.29012h2.50043v0.75811z"
          data-paper-data='{"glyphName":"E","glyphIndex":39,"word":8}'
        ></path>
        <path
          d="M464.98646,274.09404v0.77806h-1.19701v4.06985h-0.81796v-4.06985h-1.17041v-0.77806z"
          data-paper-data='{"glyphName":"T","glyphIndex":40,"word":8}'
        ></path>
        <path
          d="M470.06934,274.3667l-0.2926,0.66501c-0.1862,-0.0665 -0.37019,-0.1197 -0.55196,-0.1596c-0.18177,-0.0399 -0.35024,-0.05985 -0.50541,-0.05985c-0.27044,0 -0.48435,0.0532 -0.64173,0.1596c-0.15739,0.1064 -0.23608,0.24162 -0.23608,0.40565c0,0.14187 0.05874,0.25714 0.17623,0.3458c0.11748,0.08867 0.26489,0.16847 0.44223,0.2394c0.17734,0.07093 0.36908,0.14298 0.57523,0.21613c0.20615,0.07315 0.3979,0.16736 0.57523,0.28263c0.17734,0.11527 0.32475,0.26157 0.44223,0.43891c0.11748,0.17734 0.17623,0.40344 0.17623,0.67831c0,0.2128 -0.03879,0.40565 -0.11638,0.57856c-0.07758,0.1729 -0.19396,0.32142 -0.34913,0.44556c-0.15517,0.12413 -0.35135,0.22056 -0.58853,0.28928c-0.23719,0.06872 -0.51538,0.10308 -0.83459,0.10308c-0.19507,0 -0.3724,-0.0133 -0.53201,-0.0399c-0.1596,-0.0266 -0.30258,-0.05985 -0.42893,-0.09975c-0.12635,-0.0399 -0.23829,-0.08313 -0.33583,-0.12968c-0.09753,-0.04655 -0.18177,-0.09199 -0.2527,-0.13633l0.35245,-0.71156c0.1862,0.10197 0.3857,0.18066 0.59851,0.23608c0.2128,0.05542 0.40122,0.08313 0.56526,0.08313c0.0798,0 0.18288,-0.00887 0.30923,-0.0266c0.12635,-0.01773 0.24938,-0.05098 0.36908,-0.09975c0.1197,-0.04877 0.22278,-0.11527 0.30923,-0.1995c0.08645,-0.08423 0.12968,-0.19285 0.12968,-0.32585c0,-0.15517 -0.05874,-0.28263 -0.17623,-0.38238c-0.11748,-0.09975 -0.26489,-0.18842 -0.44223,-0.266c-0.17734,-0.07758 -0.36908,-0.15406 -0.57523,-0.22943c-0.20615,-0.07537 -0.3979,-0.16514 -0.57523,-0.26933c-0.17734,-0.10418 -0.32475,-0.23275 -0.44223,-0.3857c-0.11748,-0.15295 -0.17623,-0.34691 -0.17623,-0.58188c0,-0.16847 0.03325,-0.33361 0.09975,-0.49543c0.0665,-0.16182 0.16736,-0.30701 0.30258,-0.43558c0.13522,-0.12857 0.30369,-0.23275 0.50541,-0.31255c0.20172,-0.0798 0.44001,-0.1197 0.71488,-0.1197c0.1729,0 0.34026,0.01441 0.50208,0.04323c0.16182,0.02882 0.30701,0.06096 0.43558,0.09643c0.12857,0.03547 0.23497,0.06983 0.3192,0.10308c0.08423,0.03325 0.13522,0.05209 0.15295,0.05653z"
          data-paper-data='{"glyphName":"S","glyphIndex":41,"lastGlyphOfWord":true,"word":8}'
        ></path>
      </g>
      <g data-paper-data='{"isPrimaryText":true}' fill-rule="nonzero">
        <path
          d="M244.09879,201.97306v-11.13698h-35.3376v11.13698h12.20942v61.25288h11.13698v-61.25288z"
          data-paper-data='{"glyphName":"T","glyphIndex":0,"firstGlyphOfWord":true,"word":1}'
        ></path>
        <path
          d="M259.92057,263.22594v-72.38986h-11.13698v72.38986z"
          data-paper-data='{"glyphName":"I","glyphIndex":1,"word":1}'
        ></path>
        <path
          d="M285.88859,190.83608c-4.71478,0 -9.21032,1.92666 -12.42142,5.145c-3.4231,3.4231 -5.13776,7.91864 -5.13776,12.63343v36.83301c0,4.70754 1.70741,9.20308 5.13776,12.63343c3.2111,3.2111 7.70664,5.13776 12.42142,5.13776c4.71478,0 9.21032,-1.92666 12.42142,-5.13776c3.42207,-3.4231 5.13776,-7.91864 5.13776,-12.63343v-7.06442h-11.13698v7.07166c0,1.71569 -0.64222,3.43034 -1.92666,4.71478c-1.0652,1.07347 -2.78088,1.92666 -4.49554,1.92666c-1.70741,0 -3.4231,-0.85319 -4.49554,-1.92666c-1.28444,-1.28444 -1.92666,-2.99909 -1.92666,-4.71478v-36.84025c0,-1.71569 0.64222,-3.43034 1.92666,-4.71478c1.0652,-1.07243 2.77985,-1.92666 4.49554,-1.92666c1.70741,0 3.4231,0.85422 4.49554,1.92666c1.28444,1.28444 1.92666,2.99909 1.92666,4.71478v7.05718h11.13698v-7.06442c0,-4.70754 -1.70741,-9.20308 -5.13776,-12.63343c-3.2111,-3.2111 -7.70664,-5.13776 -12.42142,-5.13776z"
          data-paper-data='{"glyphName":"C","glyphIndex":2,"word":1}'
        ></path>
        <path
          d="M383.65389,202.18093v-11.34899h-27.62993v55.03545h27.62993v-11.34899h-16.27474v-10.49476h12.85267v-11.34795h-12.85267v-10.49476zM322.18176,231.30731v-40.47536h-11.34795v72.38986h9.64054l8.13789,-20.55827l2.99185,7.2909c1.92666,5.357 5.56797,9.64157 11.13698,11.7792c3.64131,1.28444 7.07166,1.49644 10.92498,1.49644c10.07179,-0.21201 19.92433,0 29.98784,0v-11.56823h-28.91437c-5.14603,0.21924 -9.64157,0 -12.21045,-5.13776l-7.70664,-19.49308l14.34808,-36.19907h-12.42142l-14.55905,40.47536z"
          data-paper-data='{"glyphName":"","glyphIndex":3,"word":1}'
        ></path>
        <path
          d="M422.38977,201.97306v-11.13698h-35.3376v11.13698h12.20942v61.25288h11.13698v-61.25288z"
          data-paper-data='{"glyphName":"T","glyphIndex":4,"word":1}'
        ></path>
        <path
          d="M438.21879,252.08896c0,-18.84362 0,-37.69448 -0.00724,-56.5381v-4.71478h-11.13698v72.38986h29.98784v-11.13698z"
          data-paper-data='{"glyphName":"L","glyphIndex":5,"word":1}'
        ></path>
        <path
          d="M485,190.83608h-2.13763l-13.70586,33.41094l-13.70586,-33.41094h-2.1459l14.77829,36.41004v35.97982h2.1459v-35.97982z"
          data-paper-data='{"glyphName":"Y","glyphIndex":6,"lastGlyphOfWord":true,"fontStyleEffect":true,"word":1}'
        ></path>
      </g>
      <g
        data-paper-data='{"fillRule":"evenodd","fillRuleOriginal":"evenodd","isIcon":true,"iconStyle":"standalone","selectedEffects":{"container":"","transformation":"","pattern":""},"bounds":{"x":64.99999999999999,"y":184.3869628380868,"width":110.87561984876278,"height":101.22607432382642},"iconType":"icon","rawIconId":"371332","combineTerms":"support","isDetailed":false,"suitableAsStandaloneIcon":true}'
        fill-rule="evenodd"
      >
        <path
          d="M175.87562,232.53061v-36.19256c0,-6.66403 -5.40016,-12.06419 -12.06419,-11.94929h-59.74645c-6.54913,0 -11.94929,5.28526 -11.94929,11.94929v36.30746c0,6.54913 5.28526,11.94929 11.94929,11.94929h41.01824l13.44295,13.44295c0.91918,0.91918 2.06815,1.37877 3.21712,1.37877c1.14897,0 2.29794,-0.45959 3.21712,-1.14897c0.80428,-0.91918 1.37877,-2.06815 1.37877,-3.33201v-10.68542c5.40016,-1.14897 9.53645,-5.97464 9.53645,-11.7195zM163.81143,192.66135c2.06815,0 3.6767,1.72346 3.6767,3.6767h0.11489v36.19256c0,2.06815 -1.72346,3.6767 -3.6767,3.6767h-5.97464v9.42156l-9.42156,-9.42156h-44.46514c-2.06815,0 -3.6767,-1.72346 -3.6767,-3.6767v-36.19256c0,-2.06815 1.72346,-3.6767 3.6767,-3.6767zM138.64899,203.46166c0,2.06815 -1.72346,3.7916 -3.7916,3.7916c-2.06815,0 -3.7916,-1.83835 -3.9065,-3.9065c0.11489,-2.06815 1.83835,-3.7916 3.9065,-3.7916c2.06815,0 3.7916,1.72346 3.7916,3.9065zM138.41919,225.1772c0.34469,-0.11489 0.68938,-0.45959 1.03407,-0.57449c0.57449,-0.2298 1.03407,0.11489 1.03407,0.80428c-0.11489,0.34469 -0.34469,0.68938 -0.57449,0.91918c-1.37877,1.37877 -3.10222,2.29794 -5.05547,2.29794c-0.91918,0 -1.83835,0 -2.75753,-0.11489c-1.49366,-0.2298 -3.44691,-2.06815 -3.21712,-4.13629c0.11489,-1.37877 0.34469,-2.75753 0.57449,-4.13629c0.45959,-2.29794 0.80428,-4.71078 1.26387,-7.12361v-0.45959c0,-1.03407 -0.2298,-1.37877 -1.26387,-1.49366c-0.45959,0 -0.91918,-0.11489 -1.26387,-0.2298c-0.57449,-0.11489 -0.68938,-0.57449 -0.68938,-0.91918c0,-0.45959 0.2298,-0.68938 0.80428,-0.80428c0.34469,-0.11489 0.57449,-0.11489 0.91918,-0.11489h7.23851c0.91918,0 1.49366,0.34469 1.49366,1.26387c0,0.68938 -0.11489,1.49366 -0.2298,2.18304c-0.45959,2.75753 -1.03407,5.40016 -1.49366,8.15769c-0.11489,0.91918 -0.34469,1.83835 -0.45959,2.75753c0,0.34469 0,0.80428 0.11489,1.26387c0.11489,0.57449 0.57449,0.91918 1.14897,0.80428c0.45959,0 0.91918,-0.11489 1.37877,-0.34469zM73.27259,258.61223v-36.19256c0,-1.95325 1.60856,-3.56181 3.6767,-3.56181h7.23851v-8.38748h-7.23851c-6.54913,0 -11.94929,5.28526 -11.94929,11.94929v36.30746c0,5.74485 4.13629,10.57053 9.53645,11.7195v10.68542c0,2.41284 1.95325,4.48098 4.48098,4.48098c1.14897,0 2.29794,-0.45959 3.10222,-1.37877l13.55785,-13.67274h41.13313c6.31933,0 11.6046,-4.94057 11.94929,-11.25991l-6.89382,-6.89382h-1.37877v6.20444c0,2.06815 -1.72346,3.6767 -3.6767,3.6767h-44.46514l-9.42156,9.42156v-9.42156h-5.97464c-2.06815,0 -3.6767,-1.72346 -3.6767,-3.6767z"
          data-paper-data='{"isPathIcon":true}'
        ></path>
      </g>
    </g>
  </g>
</svg>
