<svg class="svg-standalone-icon" width="100%" viewBox="64.99999999999999 184.3869628380868 110.87561984876278 101.22607432382642"><g data-paper-data="{&quot;fillRule&quot;:&quot;evenodd&quot;,&quot;fillRuleOriginal&quot;:&quot;evenodd&quot;,&quot;isIcon&quot;:true,&quot;iconStyle&quot;:&quot;standalone&quot;,&quot;selectedEffects&quot;:{&quot;container&quot;:&quot;&quot;,&quot;transformation&quot;:&quot;&quot;,&quot;pattern&quot;:&quot;&quot;},&quot;bounds&quot;:{&quot;x&quot;:64.99999999999999,&quot;y&quot;:184.3869628380868,&quot;width&quot;:110.87561984876278,&quot;height&quot;:101.22607432382642},&quot;iconType&quot;:&quot;icon&quot;,&quot;rawIconId&quot;:&quot;371332&quot;,&quot;combineTerms&quot;:&quot;support&quot;,&quot;isDetailed&quot;:false,&quot;suitableAsStandaloneIcon&quot;:true}" fill-rule="evenodd"><path d="M175.87562,232.53061v-36.19256c0,-6.66403 -5.40016,-12.06419 -12.06419,-11.94929h-59.74645c-6.54913,0 -11.94929,5.28526 -11.94929,11.94929v36.30746c0,6.54913 5.28526,11.94929 11.94929,11.94929h41.01824l13.44295,13.44295c0.91918,0.91918 2.06815,1.37877 3.21712,1.37877c1.14897,0 2.29794,-0.45959 3.21712,-1.14897c0.80428,-0.91918 1.37877,-2.06815 1.37877,-3.33201v-10.68542c5.40016,-1.14897 9.53645,-5.97464 9.53645,-11.7195zM163.81143,192.66135c2.06815,0 3.6767,1.72346 3.6767,3.6767h0.11489v36.19256c0,2.06815 -1.72346,3.6767 -3.6767,3.6767h-5.97464v9.42156l-9.42156,-9.42156h-44.46514c-2.06815,0 -3.6767,-1.72346 -3.6767,-3.6767v-36.19256c0,-2.06815 1.72346,-3.6767 3.6767,-3.6767zM138.64899,203.46166c0,2.06815 -1.72346,3.7916 -3.7916,3.7916c-2.06815,0 -3.7916,-1.83835 -3.9065,-3.9065c0.11489,-2.06815 1.83835,-3.7916 3.9065,-3.7916c2.06815,0 3.7916,1.72346 3.7916,3.9065zM138.41919,225.1772c0.34469,-0.11489 0.68938,-0.45959 1.03407,-0.57449c0.57449,-0.2298 1.03407,0.11489 1.03407,0.80428c-0.11489,0.34469 -0.34469,0.68938 -0.57449,0.91918c-1.37877,1.37877 -3.10222,2.29794 -5.05547,2.29794c-0.91918,0 -1.83835,0 -2.75753,-0.11489c-1.49366,-0.2298 -3.44691,-2.06815 -3.21712,-4.13629c0.11489,-1.37877 0.34469,-2.75753 0.57449,-4.13629c0.45959,-2.29794 0.80428,-4.71078 1.26387,-7.12361v-0.45959c0,-1.03407 -0.2298,-1.37877 -1.26387,-1.49366c-0.45959,0 -0.91918,-0.11489 -1.26387,-0.2298c-0.57449,-0.11489 -0.68938,-0.57449 -0.68938,-0.91918c0,-0.45959 0.2298,-0.68938 0.80428,-0.80428c0.34469,-0.11489 0.57449,-0.11489 0.91918,-0.11489h7.23851c0.91918,0 1.49366,0.34469 1.49366,1.26387c0,0.68938 -0.11489,1.49366 -0.2298,2.18304c-0.45959,2.75753 -1.03407,5.40016 -1.49366,8.15769c-0.11489,0.91918 -0.34469,1.83835 -0.45959,2.75753c0,0.34469 0,0.80428 0.11489,1.26387c0.11489,0.57449 0.57449,0.91918 1.14897,0.80428c0.45959,0 0.91918,-0.11489 1.37877,-0.34469zM73.27259,258.61223v-36.19256c0,-1.95325 1.60856,-3.56181 3.6767,-3.56181h7.23851v-8.38748h-7.23851c-6.54913,0 -11.94929,5.28526 -11.94929,11.94929v36.30746c0,5.74485 4.13629,10.57053 9.53645,11.7195v10.68542c0,2.41284 1.95325,4.48098 4.48098,4.48098c1.14897,0 2.29794,-0.45959 3.10222,-1.37877l13.55785,-13.67274h41.13313c6.31933,0 11.6046,-4.94057 11.94929,-11.25991l-6.89382,-6.89382h-1.37877v6.20444c0,2.06815 -1.72346,3.6767 -3.6767,3.6767h-44.46514l-9.42156,9.42156v-9.42156h-5.97464c-2.06815,0 -3.6767,-1.72346 -3.6767,-3.6767z" data-paper-data="{&quot;isPathIcon&quot;:true}" style="fill: rgb(255, 255, 255);"></path></g></svg>
